<?xml version="1.0" encoding="UTF-8"?>
<svg version="1.1" xmlns="http://www.w3.org/2000/svg" width="1884" height="690">
<path d="M0 0 C2.71042205 4.06563307 2.57076662 7.22750522 2 12 C0.62890625 15.39453125 0.62890625 15.39453125 -1.4375 18.8125 C-1.82945557 19.4729834 -2.22141113 20.1334668 -2.62524414 20.81396484 C-4.06313795 23.22213603 -5.53181056 25.61018314 -7 28 C-8.25129591 30.06822693 -9.50120027 32.13729616 -10.75 34.20703125 C-13.23496498 38.31749741 -15.72732478 42.42320939 -18.22981262 46.52302551 C-24.21719146 56.33214589 -30.12507343 66.18829251 -36.02319336 76.05126953 C-36.38340073 76.65282867 -36.74360809 77.25438782 -37.11473083 77.87417603 C-38.13473615 79.57856734 -39.15237411 81.28437473 -40.16992188 82.99023438 C-41.75214389 85.59237325 -43.39831514 88.13252007 -45.078125 90.671875 C-45.71234375 91.77015625 -46.3465625 92.8684375 -47 94 C-45.68360825 97.94917526 -43.88350932 98.72136838 -40.5 101.125 C1.32296523 132.19163609 20.6913507 180.78386792 34.35522461 229.20532227 C45.51797572 270.58777395 45.51797572 270.58777395 73.98754883 301.2253418 C81.49753622 305.34028534 89.52046076 307.12814309 97.8125 308.9375 C98.56655121 309.10575287 99.32060242 309.27400574 100.09750366 309.44735718 C127.76237407 315.60550321 155.74321741 319.81033037 184 322 C185.15000488 322.0942627 186.30000977 322.18852539 187.48486328 322.28564453 C200.39280398 323.23021042 213.31265004 323.24352144 226.25 323.25 C227.46586792 323.25067474 228.68173584 323.25134949 229.93444824 323.25204468 C250.43734489 323.23405142 270.64662002 322.47589679 291 320 C291.72411072 319.91278687 292.44822144 319.82557373 293.1942749 319.73571777 C372.78151299 310.0633786 443.38333485 281.72363557 514.95996094 246.85302734 C580.00178962 215.16742996 648.32718317 183.5081259 722 182 C723.29164062 181.96003906 724.58328125 181.92007813 725.9140625 181.87890625 C779.80384487 180.97542864 833.41147302 194.17409764 881.12353516 219.02490234 C883.00743283 220.00386244 884.89963388 220.96522448 886.79296875 221.92578125 C898.93758063 228.16194928 910.21407946 235.63540856 921 244 C920.34 245.32 919.68 246.64 919 248 C915.98143939 247.39446172 913.92291879 246.46433228 911.41015625 244.69921875 C910.3742334 243.98451416 910.3742334 243.98451416 909.31738281 243.25537109 C908.20121582 242.4792749 908.20121582 242.4792749 907.0625 241.6875 C839.18313269 195.63540985 752.61473515 178.70287586 672.19189453 193.94995117 C656.84076019 197.01672652 641.89021637 201.19555956 627 206 C625.41421143 206.50805176 625.41421143 206.50805176 623.79638672 207.02636719 C588.30423232 218.52052022 554.74728773 234.78937708 521.27252197 251.08605957 C508.4657796 257.31995443 495.59087009 263.38747652 482.64306641 269.32421875 C479.4430848 270.79328391 476.25077854 272.27846364 473.0592041 273.76568604 C402.75461767 306.49108153 328.82903967 325.89984441 238 330 C236.98260742 330.03609375 235.96521484 330.0721875 234.91699219 330.109375 C228.93416384 330.28830071 222.98120242 330.20791269 217 330 C216.35281006 329.97808594 215.70562012 329.95617187 215.03881836 329.93359375 C175.67086087 328.57221745 137.13939075 324.05039125 98.64059448 315.51574707 C97.11171573 315.17705174 95.58204794 314.84189495 94.05154419 314.51062012 C74.62957613 310.27705121 60.25177558 301.50551686 49.26953125 284.69921875 C37.83646453 266.36663738 32.27065788 245.86344287 26.64376831 225.177948 C17.55162097 191.76996353 4.7565428 160.29589708 -17 133 C-17.41330566 132.47841309 -17.82661133 131.95682617 -18.25244141 131.41943359 C-26.73580965 120.79209263 -37.02317787 108.72590011 -49 102 C-49.99 102 -50.98 102 -52 102 C-53.45288654 103.78748329 -53.45288654 103.78748329 -54.69921875 106.15625 C-55.18583984 107.01347656 -55.67246094 107.87070313 -56.17382812 108.75390625 C-56.67333984 109.66011719 -57.17285156 110.56632812 -57.6875 111.5 C-58.45416992 112.85931641 -58.45416992 112.85931641 -59.23632812 114.24609375 C-60.50108886 116.49193057 -61.75501079 118.74316089 -63 121 C-59.5100003 125.16031905 -55.95634739 129.14462758 -52.0625 132.9375 C-49.08998478 135.8745754 -46.21465003 138.82328188 -43.5 142 C-40.80388859 145.15394165 -37.95183025 148.08373397 -35 151 C-31.51566595 154.44776683 -28.21787184 157.95913934 -25.03515625 161.68359375 C-22.8513761 164.1691631 -20.59989674 166.57980663 -18.33496094 168.99121094 C3.66318024 192.42155549 3.66318024 192.42155549 4.125 202.8125 C2.40347454 246.71139934 -32.22759338 293.15602142 -60 325 C-60.7115625 325.82371094 -61.423125 326.64742188 -62.15625 327.49609375 C-71.42852714 338.03119968 -81.31821885 348.22964436 -92.359375 356.9140625 C-95.12290787 359.09708995 -97.77165098 361.38652976 -100.4375 363.6875 C-131.49937412 389.4792361 -179.59342963 420.45664859 -222.02001953 417.21875 C-235.60534365 415.71783133 -248.86709223 408.95868519 -258.3515625 399.15234375 C-259.93995587 397.78975584 -259.93995587 397.78975584 -262.0078125 398.109375 C-264.38868589 399.17376546 -265.5205836 400.36084551 -267.25 402.3125 C-301.50881862 437.44814396 -358.72443242 449.52900098 -405 461 C-406.15886719 461.28858887 -407.31773437 461.57717773 -408.51171875 461.87451172 C-438.4786342 469.21995238 -469.25636472 473.60021753 -500 476 C-501.12245117 476.0942627 -502.24490234 476.18852539 -503.40136719 476.28564453 C-517.08062803 477.30330581 -530.78963809 477.24373024 -544.5 477.25 C-545.16175484 477.25044186 -545.82350967 477.25088371 -546.50531769 477.25133896 C-569.78110169 477.25946527 -592.85137086 476.5416445 -616 474 C-616.77915771 473.91514343 -617.55831543 473.83028687 -618.36108398 473.74285889 C-630.28086176 472.4301228 -642.14938487 470.83307174 -654 469 C-655.12293457 468.82658081 -655.12293457 468.82658081 -656.26855469 468.6496582 C-696.81902393 462.31860385 -737.15752352 452.24483282 -776 439 C-777.62035156 438.45230957 -777.62035156 438.45230957 -779.2734375 437.89355469 C-810.10201205 427.38809606 -840.13817701 414.32820969 -869.0625 399.375 C-870.0510498 398.86582031 -871.03959961 398.35664062 -872.05810547 397.83203125 C-872.95803223 397.35894531 -873.85795898 396.88585937 -874.78515625 396.3984375 C-875.97443726 395.77461182 -875.97443726 395.77461182 -877.18774414 395.13818359 C-879 394 -879 394 -880 392 C-879.34 391.01 -878.68 390.02 -878 389 C-874.10267721 389.59834053 -871.18321799 390.78249051 -867.73046875 392.66796875 C-866.17513428 393.502677 -866.17513428 393.502677 -864.58837891 394.35424805 C-862.90494385 395.26170776 -862.90494385 395.26170776 -861.1875 396.1875 C-794.01785756 431.79872225 -718.85046129 452.47262008 -644 464 C-642.7404248 464.19577637 -641.48084961 464.39155273 -640.18310547 464.59326172 C-552.62076561 477.87082484 -463.66744072 471.21179904 -285.88574219 409.79418945 C-279.12276128 404.70232818 -272.95416761 399.00805148 -267 393 C-268.57199504 389.14146671 -271.0421143 386.8881436 -274 384 C-275.02959025 382.98402911 -276.0581998 381.96706361 -277.0859375 380.94921875 C-277.62049561 380.41981689 -278.15505371 379.89041504 -278.70581055 379.3449707 C-287.08975494 371.01988682 -287.08975494 371.01988682 -290.6875 366.8125 C-291.21085938 366.21179688 -291.73421875 365.61109375 -292.2734375 364.9921875 C-293.62871214 363.42840907 -294.9629676 361.84641082 -296.2890625 360.2578125 C-300.6377576 355.11707265 -300.6377576 355.11707265 -306.58203125 352.484375 C-310.49063149 352.7965827 -313.58238284 353.8193889 -317.18554688 355.37768555 C-323.75777536 357.8396866 -330.75253307 358.68748552 -337.6484375 359.8203125 C-339.20586415 360.08245594 -340.76315821 360.34538819 -342.32032776 360.60905457 C-346.47827118 361.31132874 -350.63768912 362.00445648 -354.79746628 362.69577408 C-361.7002983 363.84527386 -368.60034391 365.01147668 -375.50060081 366.17631721 C-377.22885066 366.46797893 -378.95715412 366.75932313 -380.68551064 367.0503521 C-391.70285481 368.90630118 -402.70523255 370.82263483 -413.69140625 372.85546875 C-414.84914551 373.06896973 -416.00688477 373.2824707 -417.19970703 373.50244141 C-422.44723558 374.47268757 -427.69172133 375.45658894 -432.93310547 376.45947266 C-455.49620466 380.7011731 -455.49620466 380.7011731 -464.4375 377.9375 C-468.94994833 374.52564883 -473.02139765 370.75200715 -474 365 C-475.98478777 346.45362243 -460.78300256 330.57710068 -450.68066406 316.36523438 C-429.9387681 287.17472187 -410.30284649 257.15451842 -391.1875 226.875 C-390.70015381 226.10333496 -390.21280762 225.33166992 -389.71069336 224.53662109 C-385.16883578 217.31696746 -380.73529045 210.03266155 -376.31274414 202.73950195 C-370.27466208 192.78528039 -364.14524922 182.88832083 -358 173 C-361.10752158 170.92831895 -363.73302741 169.98143894 -367.2734375 168.8203125 C-368.57164366 168.38867876 -369.86964912 167.95644106 -371.16748047 167.52368164 C-372.19491364 167.18290085 -372.19491364 167.18290085 -373.24310303 166.8352356 C-397.93265985 158.60997784 -421.65755154 148.41539918 -445.19384766 137.31933594 C-447.70064937 136.1407422 -450.21330746 134.97656731 -452.73046875 133.8203125 C-460.27666488 130.34133884 -467.7003223 126.66660252 -475.0625 122.8125 C-475.83650146 122.40821777 -476.61050293 122.00393555 -477.40795898 121.58740234 C-482.41443677 118.93573292 -487.23706216 116.06703717 -492 113 C-493.2375 114.2065625 -493.2375 114.2065625 -494.5 115.4375 C-498.28917645 118.58171025 -501.09658347 119 -506 119 C-510.17495634 117.29206331 -512.51877874 114.72183189 -515 111 C-515.4640625 109.1746875 -515.4640625 109.1746875 -515.9375 107.3125 C-519.98180547 95.76666018 -538.51787872 88.15543314 -548.7734375 83.125 C-564.84424525 75.52509192 -581.35670424 72.47664832 -598.94995117 70.51879883 C-607.15731279 69.53895685 -614.28322786 68.43391597 -619.9375 61.875 C-623.48833919 56.92534537 -623.66202931 53.00423804 -623 47 C-621.25856468 43.32363655 -620.33992321 41.5024712 -616.5 40.0625 C-614.09405231 40.00235131 -612.27447037 40.24184321 -610 41 C-610.33 40.34 -610.66 39.68 -611 39 C-612.37390449 27.08532007 -606.80440016 19.36223119 -600.31640625 9.91796875 C-596.84646139 5.5468915 -593.48430357 2.3478025 -587.875 1.5625 C-580.03733713 2.44739742 -574.14766151 9.53512788 -568.625 14.8125 C-567.30923006 16.05536148 -565.9928236 17.29754946 -564.67578125 18.5390625 C-564.04494629 19.13493164 -563.41411133 19.73080078 -562.76416016 20.34472656 C-559.71054185 23.20987078 -556.58710135 25.99538531 -553.46484375 28.78515625 C-550.58104525 31.37646172 -547.72769001 33.99956646 -544.875 36.625 C-541.00914973 40.1801745 -537.10280065 43.67874588 -533.1328125 47.1171875 C-529.83619512 50.02738819 -526.61017889 53.01506368 -523.38671875 56.00585938 C-520.91837855 58.28559985 -518.41814468 60.49095023 -515.80859375 62.60546875 C-510.53050869 67.10542166 -507.89442431 71.55839606 -507.1875 78.5 C-507.10397272 79.99897613 -507.03383222 81.49907974 -507 83 C-505.87451275 81.92717625 -505.87451275 81.92717625 -504.6875 80.1875 C-501.74261575 76.37005745 -499.48419907 73.53474231 -494.5625 72.75 C-489.66934354 72.63309865 -485.93903303 74.16854088 -482 77 C-478.30750966 80.78966114 -476.16414649 84.56734898 -475.8046875 89.89453125 C-475.83949219 91.33892578 -475.83949219 91.33892578 -475.875 92.8125 C-475.89304687 93.78832031 -475.91109375 94.76414062 -475.9296875 95.76953125 C-475.96449219 96.87361328 -475.96449219 96.87361328 -476 98 C-460.47385941 105.33693152 -444.93725556 112.63778592 -429.25 119.625 C-415.09536546 125.93279335 -401.03158721 132.4234617 -387 139 C-386.28410706 139.33549866 -385.56821411 139.67099731 -384.83062744 140.0166626 C-379.42724631 142.5495747 -374.02561377 145.08619326 -368.625 147.625 C-367.88440338 147.97301666 -367.14380676 148.32103333 -366.38076782 148.67959595 C-364.26645404 149.67354547 -362.15266399 150.66859937 -360.0390625 151.6640625 C-359.10336174 152.10387199 -359.10336174 152.10387199 -358.14875793 152.55256653 C-355.31711757 153.8877188 -352.54863687 155.25058841 -349.81005859 156.77099609 C-347.18027301 158.14339857 -347.18027301 158.14339857 -344.83300781 158.00561523 C-342.11702213 156.51558527 -341.19898061 154.58888284 -339.671875 151.91015625 C-339.04563232 150.82968018 -338.41938965 149.7492041 -337.77416992 148.63598633 C-337.28066544 147.76461533 -337.28066544 147.76461533 -336.77719116 146.87564087 C-335.3749359 144.40045766 -333.94504257 141.94166412 -332.51603699 139.4818573 C-331.77400435 138.20447589 -331.03330799 136.92631737 -330.29389954 135.64741516 C-326.71088673 129.4614667 -322.96241559 123.38297879 -319.1875 117.3125 C-308.23411137 99.61762752 -297.66457651 81.69239278 -287.15625 63.73046875 C-286.76654526 63.06454208 -286.37684052 62.39861542 -285.97532654 61.71250916 C-284.12366207 58.54741487 -282.27447421 55.38092017 -280.42993164 52.21166992 C-279.44561157 50.52521362 -279.44561157 50.52521362 -278.44140625 48.8046875 C-277.87107666 47.82483887 -277.30074707 46.84499023 -276.71313477 45.83544922 C-276.14780029 44.89975098 -275.58246582 43.96405273 -275 43 C-274.30571899 41.42822998 -274.30571899 41.42822998 -273.59741211 39.82470703 C-269.36995984 35.22731792 -263.98481641 35.0144475 -258 34 C-256.89284637 33.7912323 -255.78569275 33.5824646 -254.64498901 33.36737061 C-251.06908525 32.69993049 -247.4875925 32.07615335 -243.90234375 31.4609375 C-242.51418772 31.22061897 -241.12605583 30.98016094 -239.73794556 30.73957825 C-235.94008793 30.08311788 -232.14117456 29.43298228 -228.34184647 28.7850914 C-225.9134503 28.37089802 -223.48526917 27.95545988 -221.05709839 27.53994751 C-189.60011325 22.16449884 -158.08809943 17.1424039 -126.5625 12.1875 C-125.44306377 12.0114196 -124.32362755 11.8353392 -123.17026901 11.65392303 C-110.1103337 9.60010475 -97.04823259 7.5609095 -83.98238468 5.5450325 C-77.01995501 4.47013091 -70.05969571 3.38208816 -63.10038471 2.28718472 C-58.2631802 1.52840545 -53.42458764 0.77876327 -48.58564568 0.03115273 C-46.28874983 -0.32553775 -43.99240717 -0.68581231 -41.6966877 -1.04999733 C-8.02626006 -6.38452505 -8.02626006 -6.38452505 0 0 Z M-29.22314453 2.56616211 C-30.33042624 2.7342636 -31.43770796 2.90236509 -32.57854366 3.07556057 C-36.26424183 3.63684177 -39.94852018 4.20691271 -43.6328125 4.77734375 C-45.59121186 5.07752525 -47.54961228 5.37770027 -49.50809675 5.67732596 C-56.51737788 6.74972297 -63.52526311 7.83099737 -70.53250557 8.9166286 C-75.65820883 9.71073653 -80.7843079 10.50224379 -85.91061401 11.29244995 C-135.95177644 19.00923022 -185.9202582 27.12468187 -235.84251404 35.57901001 C-236.66754205 35.71863946 -237.49257006 35.85826891 -238.34259892 36.00212955 C-239.93665375 36.27411071 -241.53014174 36.54943949 -243.12298489 36.82842922 C-247.01483491 37.50874925 -250.90284927 38.1349446 -254.81790161 38.66734314 C-255.59363997 38.78138961 -256.36937834 38.89543608 -257.16862392 39.0129385 C-258.62442773 39.22604918 -260.08317004 39.42036108 -261.54451847 39.59136295 C-265.40515799 40.18069718 -266.91885625 40.91422605 -269.63691711 43.78738403 C-271.35812271 46.5100216 -272.80546561 49.24003821 -274.13647461 52.17205811 C-275.5697457 55.20605839 -277.34445546 58.04190834 -279.078125 60.91015625 C-279.76658097 62.08404647 -280.45275867 63.25927563 -281.13671875 64.43579102 C-283.3415832 68.22040889 -285.55242342 72.00150207 -287.765625 75.78125 C-288.13353149 76.40959244 -288.50143799 77.03793488 -288.88049316 77.68531799 C-298.2821831 93.7290182 -307.98682208 109.59298577 -317.6479187 125.48121643 C-320.66524875 130.44518297 -323.67199453 135.41550658 -326.67721558 140.3868103 C-329.83973216 145.615821 -333.02008119 150.83377216 -336.20556641 156.04882812 C-337.77069761 158.62288336 -339.31638319 161.20721335 -340.85546875 163.796875 C-341.63186863 165.07349118 -342.40910326 166.34960039 -343.1875 167.625 C-343.79980469 168.64851562 -344.41210938 169.67203125 -345.04296875 170.7265625 C-347 173 -347 173 -349.88623047 173.79980469 C-353.83022853 175.32000968 -354.67793067 176.85453311 -356.77734375 180.4765625 C-357.78365845 182.1776416 -357.78365845 182.1776416 -358.81030273 183.91308594 C-359.51943429 185.15035291 -360.22849843 186.38765853 -360.9375 187.625 C-361.68291894 188.89476525 -362.43042375 190.16330811 -363.17993164 191.43066406 C-364.32910551 193.37436323 -365.4769643 195.31870817 -366.61839294 197.26696777 C-370.27343982 203.50341071 -374.08496628 209.6333969 -377.9375 215.75 C-379.17983107 217.72777441 -380.42202351 219.7056359 -381.6640625 221.68359375 C-382.52692871 223.05620361 -382.52692871 223.05620361 -383.40722656 224.45654297 C-384.78966273 226.66411808 -386.16074791 228.87786272 -387.5234375 231.09765625 C-393.59029944 240.95982818 -400.01245462 250.57719747 -406.45385742 260.19677734 C-410.39241032 266.07981543 -414.31864111 271.96762723 -418.125 277.9375 C-427.34659473 292.39538786 -437.09305238 306.50523419 -447 320.5 C-449.00179135 323.33207241 -451.00173041 326.16544162 -453 329 C-453.50660156 329.71816895 -454.01320313 330.43633789 -454.53515625 331.17626953 C-456.02954999 333.30081204 -457.51584935 335.4307931 -459 337.5625 C-459.44472656 338.19285156 -459.88945312 338.82320313 -460.34765625 339.47265625 C-465.46318069 346.8565325 -469.390724 353.77290245 -469 363 C-468.16665762 366.64758058 -466.76573524 369.28212321 -464 371.875 C-456.77089572 375.94137116 -448.25476076 373.71852339 -440.52685547 372.31933594 C-439.50764008 372.14044327 -438.48842468 371.9615506 -437.43832397 371.77723694 C-434.08009316 371.18611849 -430.72367278 370.58531893 -427.3671875 369.984375 C-425.01004133 369.56739143 -422.65279049 369.15099917 -420.29544067 368.73516846 C-414.08531602 367.63801383 -407.87669293 366.53257765 -401.66833496 365.42547607 C-395.42434035 364.31361303 -389.17888834 363.21000174 -382.93359375 362.10546875 C-370.63392769 359.92812817 -358.33520664 357.74573864 -346.04024506 355.54197693 C-342.94957986 354.99101173 -339.85752375 354.44841913 -336.76519775 353.90686035 C-334.78891847 353.55684595 -332.81266021 353.20671286 -330.83642578 352.85644531 C-329.49587033 352.62478228 -329.49587033 352.62478228 -328.12823296 352.38843918 C-321.77923879 351.25495766 -315.90456494 349.65564165 -310 347 C-311.65735167 342.65077142 -314.91154097 339.90864955 -318.1875 336.75 C-322.40022199 332.62000431 -326.44295516 328.45805534 -330.26171875 323.95703125 C-333.20751094 320.64053262 -336.41176741 317.58106994 -339.56640625 314.46484375 C-342.35179935 311.64368317 -344.96118212 308.71153259 -347.52734375 305.69140625 C-348.94371131 303.98275769 -348.94371131 303.98275769 -350.57397461 302.64697266 C-352.81753147 300.05580084 -352.31990761 297.83540776 -352.20410156 294.53759766 C-351.85531876 290.20117601 -351.17587496 285.96152193 -350.375 281.6875 C-350.19606201 280.73109619 -350.01712402 279.77469238 -349.83276367 278.78930664 C-340.25704236 229.80410049 -312.03942087 189.48528986 -277.14404297 154.93823242 C-275.23205738 153.04473083 -273.32842351 151.14312 -271.42578125 149.24023438 C-265.45219224 143.2838181 -259.45274021 137.44130629 -253 132 C-251.9510906 131.07521904 -250.90415434 130.14819441 -249.859375 129.21875 C-223.49854354 106.0499679 -193.87368612 85.88379321 -159.8125 76.25 C-159.1127002 76.05124268 -158.41290039 75.85248535 -157.69189453 75.64770508 C-146.74396254 72.69219416 -136.07697185 71.63513305 -124.75 71.6875 C-122.83030396 71.69595947 -122.83030396 71.69595947 -120.87182617 71.70458984 C-98.16843103 71.99582537 -75.59779326 78.89600821 -56.14453125 90.73828125 C-54.12739566 92.16902958 -54.12739566 92.16902958 -52 92 C-50.85435163 90.55345299 -50.85435163 90.55345299 -49.77734375 88.609375 C-49.33011963 87.85156738 -48.88289551 87.09375977 -48.42211914 86.31298828 C-47.93219482 85.46720215 -47.44227051 84.62141602 -46.9375 83.75 C-45.85263024 81.90822482 -44.76662765 80.06711659 -43.6796875 78.2265625 C-42.79555176 76.72464355 -42.79555176 76.72464355 -41.89355469 75.19238281 C-38.85698811 70.07297274 -35.75265425 64.99505616 -32.65304565 59.91369629 C-25.44299096 48.08787494 -18.33665492 36.20405802 -11.33349609 24.25439453 C-10.12295558 22.20786742 -8.89094302 20.1771556 -7.64453125 18.15234375 C-6.67580078 16.56099609 -6.67580078 16.56099609 -5.6875 14.9375 C-5.15511719 14.08027344 -4.62273437 13.22304687 -4.07421875 12.33984375 C-2.847779 9.66843499 -2.68901782 7.90743659 -3 5 C-4.39354818 3.04903254 -5.47627923 2.21336772 -7.6875 1.3125 C-14.98550635 0.32628293 -22.01282388 1.44021214 -29.22314453 2.56616211 Z M-594.0234375 10.89453125 C-599.86489544 17.11695383 -606.05292944 25.14563784 -605.984375 34.0234375 C-605.62418197 38.42761589 -604.73626643 41.5605894 -602 45 C-599.38027775 46.4416722 -596.64560781 47.37472894 -593.8125 48.3125 C-593.06291016 48.57611328 -592.31332031 48.83972656 -591.54101562 49.11132812 C-589.69939965 49.75648022 -587.85036059 50.38037407 -586 51 C-593.45151508 52.8064279 -598.87342062 52.03855933 -605.6875 48.9375 C-610.34461849 46.68867424 -610.34461849 46.68867424 -615.39453125 46.19140625 C-617.19886107 46.89966788 -617.19886107 46.89966788 -618 49 C-618.42872553 52.77278467 -618.12313092 54.74881292 -616.4375 58.1875 C-610.52131281 65.01386983 -601.70335795 64.88349962 -593.25 65.875 C-564.92348162 69.5345838 -539.13922989 78.34064906 -517 97 C-512.21459215 92.21459215 -512.72474265 84.29345265 -512.5390625 77.9296875 C-513.7030565 70.53142055 -520.00654051 65.8819232 -525.25 61.0625 C-526.33861328 60.04639648 -526.33861328 60.04639648 -527.44921875 59.00976562 C-531.60687797 55.14484712 -535.83639843 51.37436127 -540.12011719 47.65014648 C-542.96384745 45.15394222 -545.73227055 42.5797972 -548.5 40 C-552.56124645 36.23149786 -556.65657886 32.52206592 -560.8515625 28.90234375 C-563.16427466 26.85454226 -565.42108693 24.75412147 -567.67822266 22.64550781 C-579.72049706 8.89323654 -579.72049706 8.89323654 -594.0234375 10.89453125 Z M-222 113 C-222.58620117 113.433125 -223.17240234 113.86625 -223.77636719 114.3125 C-236.6994265 123.90178459 -248.66753373 134.56292428 -260.42089844 145.53417969 C-262.50643627 147.47010566 -264.6129944 149.38234475 -266.71948242 151.29541016 C-274.15739878 158.06060382 -281.40818617 164.95762344 -287.9453125 172.609375 C-289.56593696 174.49496848 -291.20702343 176.35276738 -292.8671875 178.203125 C-320.56312633 209.2731023 -340.86721584 246.46913864 -347 288 C-347.13647949 288.87503174 -347.27295898 289.75006348 -347.41357422 290.65161133 C-347.53104004 291.53357178 -347.64850586 292.41553223 -347.76953125 293.32421875 C-347.93545776 294.52437622 -347.93545776 294.52437622 -348.10473633 295.7487793 C-347.88964973 300.37188771 -344.20444762 303.02752418 -341 306 C-339.53141723 307.45064823 -338.07535922 308.91317442 -336.62011719 310.37719727 C-335.63474163 311.36434277 -334.64330851 312.34548382 -333.64550781 313.32006836 C-330.10603525 316.78792949 -330.10603525 316.78792949 -329 319 C-328.34 319 -327.68 319 -327 319 C-326.73662842 319.59006836 -326.47325684 320.18013672 -326.2019043 320.78808594 C-324.94798348 323.09572815 -323.64804739 324.56727394 -321.76953125 326.390625 C-320.81675293 327.32612183 -320.81675293 327.32612183 -319.84472656 328.28051758 C-319.1740918 328.93044678 -318.50345703 329.58037598 -317.8125 330.25 C-313.10402327 334.87308117 -308.4898229 339.47610276 -304.296875 344.58203125 C-301.02339991 348.16116215 -297.05195005 348.99041063 -292.5703125 350.2578125 C-291.00997808 350.70836499 -289.45849951 351.19412282 -287.9296875 351.7421875 C-285.93632016 352.48824546 -285.93632016 352.48824546 -283 353 C-280.40891494 351.56602551 -279.22998667 350.55570854 -278.09033203 347.80200195 C-277.89810059 346.95597412 -277.70586914 346.10994629 -277.5078125 345.23828125 C-277.2811792 344.29243164 -277.0545459 343.34658203 -276.82104492 342.37207031 C-276.5913501 341.36241211 -276.36165527 340.35275391 -276.125 339.3125 C-273.72835478 329.53800639 -270.96822445 320.24794258 -267 311 C-266.69255859 310.2795752 -266.38511719 309.55915039 -266.06835938 308.81689453 C-256.46869229 286.69695159 -243.34766419 266.94529347 -227.04296875 249.2265625 C-225.17040692 247.18572074 -223.36170466 245.10536303 -221.5625 243 C-191.3911186 208.42862548 -126.70549017 153.35256814 -79.12280273 149.86230469 C-63.30275845 149.11407162 -51.31419237 151.90070229 -39.125 162.5 C-35.75918792 166.45977892 -34 169.28199231 -34 174.5625 C-35.26686221 178.91733884 -36.37292874 180.24503589 -40 183 C-43.84409773 184.0576414 -47.73347583 184.47624142 -51.6875 184.9375 C-68.95340554 187.34374176 -83.7801792 192.58324174 -99 201 C-99.62471191 201.34401855 -100.24942383 201.68803711 -100.89306641 202.04248047 C-121.6168732 213.60963258 -139.18759949 229.39328504 -156.37109375 245.58984375 C-159.24540853 248.29899439 -162.1474576 250.97528597 -165.06347656 253.6394043 C-174.50896864 262.27978603 -183.8346113 271.12004943 -192 281 C-192.40621582 281.48178711 -192.81243164 281.96357422 -193.23095703 282.45996094 C-210.45326687 302.94952569 -223.56484621 324.87385692 -233.26831055 349.75170898 C-238.37652815 362.72481854 -244.34806569 374.56208958 -253.0546875 385.484375 C-254.9218493 387.89893765 -256.48608283 390.35302532 -258 393 C-244.04456118 404.88682289 -230.64645446 412.28540492 -212 412 C-166.0658771 408.26868788 -122.09098514 375.56283152 -88.65136719 346.42797852 C-87.49224053 345.4256527 -86.32551796 344.43207613 -85.15332031 343.44506836 C-82.07263504 340.84711039 -79.19521309 338.30847304 -76.625 335.1875 C-74.08648297 332.19567636 -71.43827872 329.42263209 -68.625 326.6875 C-63.66803889 321.77226415 -59.30302382 316.48740136 -55 311 C-54.50983398 310.38092773 -54.01966797 309.76185547 -53.51464844 309.12402344 C-31.93619123 281.8019473 -2.06857112 240.58854626 -1.625 204.4375 C-1.59664062 203.38433594 -1.56828125 202.33117187 -1.5390625 201.24609375 C-2.57182183 193.97301745 -7.398063 189.14115267 -12.3125 184.0625 C-13.48519702 182.82630011 -14.65708033 181.58932777 -15.828125 180.3515625 C-16.66053711 179.47612793 -16.66053711 179.47612793 -17.50976562 178.58300781 C-19.24312658 176.74173775 -20.91416482 174.85511766 -22.5625 172.9375 C-27.56004415 167.15794405 -32.79748115 161.59429705 -38 156 C-38.59409668 155.35933594 -39.18819336 154.71867187 -39.80029297 154.05859375 C-46.54833671 146.78572193 -53.34060573 139.55935003 -60.3125 132.5 C-60.85769287 131.94183594 -61.40288574 131.38367188 -61.96459961 130.80859375 C-63.27090758 129.49914612 -64.63081418 128.2435529 -66 127 C-66.66 127 -67.32 127 -68 127 C-69.35278115 128.98689731 -70.68568305 130.98745218 -72 133 C-74.85324437 134.42662219 -76.83454549 134.31033868 -80 134 C-83.95938148 131.56345755 -86.72617489 128.10648084 -89.71484375 124.60546875 C-92.73328829 121.163926 -95.86648222 117.83659336 -99 114.5 C-109.12353507 103.68857351 -109.12353507 103.68857351 -113 99 C-113.50273438 98.41089844 -114.00546875 97.82179688 -114.5234375 97.21484375 C-116.99885705 94.10347387 -117.94830058 92.33891841 -118.5625 88.3125 C-118 85 -118 85 -116.4375 82.5625 C-112.90550465 80.29840042 -111.13858566 80.2412593 -107 81 C-105.15185547 82.35009766 -105.15185547 82.35009766 -103.2421875 84.1015625 C-102.19321289 85.05494507 -102.19321289 85.05494507 -101.12304688 86.02758789 C-100.42244141 86.67848389 -99.72183594 87.32937988 -99 88 C-98.04963867 88.86902954 -98.04963867 88.86902954 -97.08007812 89.75561523 C-95.1671403 91.51288949 -93.26905038 93.28489299 -91.375 95.0625 C-90.69421387 95.69937744 -90.01342773 96.33625488 -89.31201172 96.99243164 C-83.85551071 102.12614126 -78.5472328 107.39582163 -73.34130859 112.78344727 C-71.93010293 114.22500369 -70.46945114 115.61786407 -69 117 C-68.34 117 -67.68 117 -67 117 C-64.81929937 114.26866826 -63.07935429 111.22441147 -61.25 108.25 C-60.71761719 107.425 -60.18523437 106.6 -59.63671875 105.75 C-59.14300781 104.95078125 -58.64929688 104.1515625 -58.140625 103.328125 C-57.68204102 102.5949707 -57.22345703 101.86181641 -56.75097656 101.10644531 C-55.75960449 99.00006293 -55.75960449 99.00006293 -56.69067383 96.84790039 C-58.68385829 94.03484553 -61.43834187 92.72573797 -64.4375 91.1875 C-65.09347168 90.84565674 -65.74944336 90.50381348 -66.42529297 90.15161133 C-120.21816424 62.97925049 -175.92658056 78.73012965 -222 113 Z M-499 81 C-500.49951246 83.66042533 -501.75695712 86.22401731 -503 89 C-504.03037664 91.15127732 -505.07255441 93.29693269 -506.125 95.4375 C-506.87136719 96.98244141 -506.87136719 96.98244141 -507.6328125 98.55859375 C-509 101 -509 101 -511 102 C-510.7128051 105.73353364 -510.46797134 108.32404139 -508.3125 111.4375 C-506.05200769 113.15970913 -506.05200769 113.15970913 -503.1875 113.6875 C-497.509823 112.462903 -494.35408889 107.81955694 -491 103.3125 C-489.05260585 101.06082551 -487.90165739 100.34394909 -485.3125 99.0625 C-481.80446683 97.34353571 -481.80446683 97.34353571 -480.9375 94.1875 C-481.02351962 89.80049951 -481.34326554 85.94117382 -484.296875 82.48046875 C-489.37594278 77.93810658 -493.56070523 76.39751981 -499 81 Z M-112 85 C-114.24704664 86.78421102 -114.24704664 86.78421102 -114.0390625 89.16796875 C-112.47315378 93.43595306 -109.52764818 96.10843248 -106.375 99.3125 C-105.07988737 100.66195302 -103.7856052 102.01220359 -102.4921875 103.36328125 C-101.90808105 103.96438721 -101.32397461 104.56549316 -100.72216797 105.18481445 C-98.92511429 107.07893043 -97.20850748 109.02580412 -95.5 111 C-93.19993036 113.64663788 -90.86459527 116.24856591 -88.47265625 118.8125 C-87.83199219 119.49957031 -87.19132813 120.18664062 -86.53125 120.89453125 C-83.69052367 123.93253024 -80.84750123 126.9683497 -78 130 C-74.91806366 129.41814065 -74.19190463 129.23668238 -72.125 126.6875 C-70.74955613 124.15413598 -70.74955613 124.15413598 -71.5 122 C-73.44139364 119.41147514 -75.69894698 117.27715276 -78 115 C-78.99519635 114.00145842 -79.98937948 113.00190621 -80.98266602 112.00146484 C-83.88377774 109.08259398 -86.78790349 106.16674291 -89.69311523 103.25195312 C-90.94205398 101.99795795 -92.19009765 100.7430707 -93.43725586 99.48730469 C-95.24877481 97.66364387 -97.0635157 95.8432433 -98.87890625 94.0234375 C-99.43316788 93.46401459 -99.9874295 92.90459167 -100.55848694 92.32821655 C-104.50662841 88.33115863 -104.50662841 88.33115863 -109 85 C-109.99 85 -110.98 85 -112 85 Z M-480 104 C-481.62507196 106.8331162 -481.62507196 106.8331162 -483 110 C-481.64661696 114.06014911 -479.97548377 114.35874463 -476.2109375 116.30078125 C-475.60885468 116.61362061 -475.00677185 116.92645996 -474.38644409 117.2487793 C-472.38830473 118.28151906 -470.382406 119.29790195 -468.375 120.3125 C-467.68450562 120.66492767 -466.99401123 121.01735535 -466.28259277 121.38046265 C-434.5387505 137.57310699 -401.66645256 151.33374577 -368 163 C-366.37553955 163.58225342 -366.37553955 163.58225342 -364.71826172 164.17626953 C-363.10781982 164.74063721 -363.10781982 164.74063721 -361.46484375 165.31640625 C-360.49023193 165.6626001 -359.51562012 166.00879395 -358.51147461 166.36547852 C-355.89858677 167.26562664 -355.89858677 167.26562664 -353 166 C-352.26676204 163.98491642 -352.26676204 163.98491642 -352 162 C-377.66582464 148.97989771 -403.67188444 136.74045006 -429.91577148 124.93798828 C-434.15354962 123.03081438 -438.38838384 121.1171149 -442.62353516 119.20411682 C-445.91961927 117.71532654 -449.21599833 116.22721022 -452.51367188 114.74194336 C-453.70025391 114.20706299 -454.88683594 113.67218262 -456.109375 113.12109375 C-457.25083984 112.60788574 -458.39230469 112.09467773 -459.56835938 111.56591797 C-461.93590764 110.48556406 -464.28864715 109.39068146 -466.63476562 108.26611328 C-467.79169922 107.71552246 -468.94863281 107.16493164 -470.140625 106.59765625 C-471.17219727 106.09886963 -472.20376953 105.60008301 -473.26660156 105.08618164 C-476.12932686 103.75380934 -476.12932686 103.75380934 -480 104 Z M-490 109 C-490 112 -490 112 -490 112 Z M-126 175 C-126.85400391 175.53044922 -127.70800781 176.06089844 -128.58789062 176.60742188 C-147.71329699 188.53494639 -166.29538051 201.0398602 -184 215 C-185.00546875 215.79019531 -186.0109375 216.58039063 -187.046875 217.39453125 C-203.73540765 230.7791203 -219.99783976 245.98735026 -233 263 C-233.68707031 263.85851562 -234.37414062 264.71703125 -235.08203125 265.6015625 C-254.81395447 290.84420302 -268.29716183 319.9357659 -274.91796875 351.26953125 C-276.28835804 354.72766163 -277.62992518 355.54198859 -281 357 C-284.93352397 357.27603677 -288.22013268 357.02560951 -292 356 C-287.98733442 361.79607251 -283.48616192 366.64367501 -278.47363281 371.55761719 C-274.94159521 375.02788274 -271.61536427 378.60421797 -268.40234375 382.375 C-266.69711909 384.35097064 -264.88236824 386.19292649 -263 388 C-258.86303096 386.4793333 -256.81553947 383.54988712 -254.375 380.0625 C-253.941875 379.44479736 -253.50875 378.82709473 -253.0625 378.19067383 C-244.28745445 365.33719761 -238.23921415 351.45266159 -232.609375 337.0012207 C-220.44322977 306.00002713 -198.71431582 280.29124354 -175.28955078 257.08374023 C-173.23271993 255.04537507 -171.18421383 252.99891053 -169.13671875 250.95117188 C-167.80516094 249.62452464 -166.47314601 248.29833602 -165.140625 246.97265625 C-164.54147278 246.37461685 -163.94232056 245.77657745 -163.32501221 245.16041565 C-159.5815792 241.45806689 -155.7169396 237.9399858 -151.73051453 234.50050354 C-149.62619171 232.67587636 -147.59798995 230.77581671 -145.5625 228.875 C-118.23752539 204.21072616 -85.98078407 184.11124092 -48.8659668 180.07495117 C-47.59039917 179.9257019 -47.59039917 179.9257019 -46.2890625 179.7734375 C-45.15525146 179.65621338 -45.15525146 179.65621338 -43.99853516 179.53662109 C-41.53690434 178.87565548 -40.55740573 177.99551986 -39 176 C-38.37697155 172.95408315 -38.42663733 170.99832559 -39.99609375 168.265625 C-46.40127543 160.06408925 -55.90976141 155.68170643 -66 154 C-87.59435809 151.59071211 -108.36364677 164.02271501 -126 175 Z " fill="#000000" transform="translate(907,123)"/>
</svg>
